<?xml version="1.0" encoding="UTF-8"?>
<svg xmlns="http://www.w3.org/2000/svg" xmlns:xlink="http://www.w3.org/1999/xlink" viewBox="0 0 864 360">
  <defs>
    <style>
      .nav-1 {
        stroke: url(#nav-logo-grad);
      }

      .nav-1, .nav-2, .nav-3, .nav-4, .nav-5 {
        stroke-miterlimit: 10;
      }

      .nav-1, .nav-2, .nav-4, .nav-5 {
        fill: none;
        stroke-width: 10px;
      }

      .nav-1, .nav-2, .nav-5 {
        stroke-linecap: round;
      }

      .nav-2, .nav-3, .nav-4 {
        stroke: #101f32;
      }

      .nav-3 {
        fill: #101f32;
        font-family: 'IBM Plex Sans', 'Helvetica Neue', Arial, sans-serif;
        font-size: 160px;
        font-variation-settings: 'wght' 300, 'wdth' 100;
        font-weight: 300;
        stroke-width: 3px;
      }

      .nav-4 {
        stroke-linecap: square;
      }

      .nav-6 {
        fill: #fff;
      }

      .nav-5 {
        stroke: #356a88;
      }
    </style>
    <linearGradient id="nav-logo-grad" x1="233.35" y1="240.61" x2="299.59" y2="240.61" gradientUnits="userSpaceOnUse">
      <stop offset="0" stop-color="#101f32" stop-opacity="0"/>
      <stop offset=".68" stop-color="#101f32"/>
    </linearGradient>
  </defs>
  <g id="small_backcard" data-name="small backcard">
    <g>
      <polygon class="nav-6" points="733.73 336.46 132.94 336.46 13.73 180 132.94 23.54 733.73 23.54 733.73 336.46"/>
      <polygon class="nav-6" points="134.58 336.46 735.38 336.46 854.58 180 735.38 23.54 134.58 23.54 134.58 336.46"/>
    </g>
  </g>
  <g id="small_logo" data-name="small logo">
    <g id="Layer_2_copy_3" data-name="Layer 2 copy 3">
      <g>
        <g>
          <path class="nav-5" d="M238.35,245.57c4.21,4.67,9.47,8.03,15.96,9.15,15.33,1.53,28.95-11.22,40.28-28.34"/>
          <path class="nav-5" d="M144.06,160.35c3.97-4.17,13.35-19.21,19.41-14.4,5.69,6.45,4.61,28.16,5.45,38.79.53,25.44,2.02,58.88,4.67,82.92.34,2.3.59,2.03.74-.79,1.4-28.72-2.68-60.35,5.33-88.11,7.82-28.53,32.81-39.39,45.71-8.27,7.69,17.32-2.18,46.98,5.65,63.78,1.98,4.19,4.41,8.07,7.35,11.32"/>
        </g>
        <g>
          <line class="nav-4" x1="543.07" y1="247.39" x2="564.08" y2="226.38"/>
          <path class="nav-2" d="M294.59,226.38c12.86-19.43,22.79-44.49,28.94-60.7,4.59-13.27,7.76-26.89,7.97-41.13,1.33-20-9.93-58.9-17.62-17.74-3.72,21.74-5.75,49.42-6.98,72.31-.79,17.57-.74,34.54-3.51,52.23-2.2,11.85-5.51,35.43-14.82,39.18-6.51-1.39-2.28-15.62.21-20.08,6.34-13.35,21.57-19.17,35.57-15.5,9.89,2.2,56.61,39.63,70.08,18.59,7.62-11.68,8.7-25.35,9.8-39.05.85-11.15,1.51-22.67,3.17-34.51,2.01-13.25,5-31.56,12.82-41.28,9.95-12.08,34.37,1.07,36.29,12.87,4.88,29.19,1.3,97.79.87,100.29-.09.33-.15.33-.18-.02-.18-1.83,5.24-90.89,30.4-114.39,13.72-12.37,28.51-.5,31.4,15.36,3.11,14.23-.69,29.89-2.62,44.9-3.13,22.24-5.09,63.93,26.7,49.67"/>
          <path class="nav-1" d="M238.35,245.57c4.21,4.67,9.47,8.03,15.96,9.15,15.33,1.53,28.95-11.22,40.28-28.34"/>
          <line class="nav-4" x1="543.07" y1="247.39" x2="564.08" y2="268.4"/>
          <line class="nav-4" x1="719.94" y1="247.39" x2="698.93" y2="226.38"/>
          <line class="nav-4" x1="719.94" y1="247.39" x2="698.93" y2="268.4"/>
          <line class="nav-4" x1="576.33" y1="274.67" x2="609.79" y2="211.33"/>
          <text class="nav-3" transform="translate(617.24 279.12)"><tspan x="0" y="0">S</tspan></text>
        </g>
      </g>
    </g>
  </g>
</svg>