<?xml version="1.0" encoding="UTF-8"?>
<svg id="big_logo" data-name="big logo" xmlns="http://www.w3.org/2000/svg" xmlns:xlink="http://www.w3.org/1999/xlink" viewBox="0 0 1224 360">
  <defs>
    <style>
      .cls-1 {
        stroke: url(#linear-gradient);
      }

      .cls-1, .cls-2, .cls-3, .cls-4, .cls-5 {
        stroke-miterlimit: 10;
      }

      .cls-1, .cls-3, .cls-4, .cls-5 {
        fill: none;
        stroke-width: 10px;
      }

      .cls-1, .cls-3, .cls-5 {
        stroke-linecap: round;
      }

      .cls-2 {
        fill: #101f32;
        stroke-width: 3px;
      }

      .cls-2, .cls-3, .cls-4 {
        stroke: #101f32;
      }

      .cls-4 {
        stroke-linecap: square;
      }

      .cls-5 {
        stroke: #356a88;
      }
    </style>
    <linearGradient id="linear-gradient" x1="558.97" y1="254.84" x2="630.61" y2="254.84" gradientUnits="userSpaceOnUse">
      <stop offset="0" stop-color="#101f32" stop-opacity="0"/>
      <stop offset=".68" stop-color="#101f32"/>
    </linearGradient>
  </defs>
  <g id="Layer_2_copy" data-name="Layer 2 copy">
    <g>
      <g>
        <path class="cls-5" d="M157.1,162.63c3.97-4.17,13.35-19.21,19.41-14.4,5.69,6.45,4.61,28.16,5.45,38.79.53,25.44,2.02,58.88,4.67,82.92.34,2.3.59,2.03.74-.79,1.4-28.72-2.68-60.35,5.33-88.11,7.82-28.53,32.81-39.39,45.71-8.27,7.69,17.32-2.18,46.98,5.65,63.78,1.16,2.5,9.36,18.23,23.3,20.46,19.41,3.11,25.8-23.66,34.43-39.54,9.22-16.98,7.09-26.59,21.65-54.11,6.73-12.73,5.87-1.12,6.38-.84,1.32.72-22.54,20.15-19.91,63.97.88,14.73,5.98,40.6,18.04,43.06,16.38,3.34,33.09-20.9,42.46-50.26,3.53-11.06,17.61-55.2,0-68.54-9.68-7.33-27.18-4.03-27.96,0-1.4,7.26,36.16,25.88,71.16,11.31,27.73-11.54,36.8-45.27,41.49-43.29,7.2,3.03-34.94,73.93-8.12,126.26,3.28,6.4,7.89,22.89,37,28.35,20.93,3.92,42.63-4.05,56.82-18.94,1.9-1.99,22.34-24.13,16.78-52.31-3.4-17.24-14.74-27.94-25.8-26.33-9.76,1.42-17.75,10.21-18.94,22.73-2.77,29.08,16.15,75.87,51.41,75.85,31.54-.02,89.9-62.37,106.52-102.72"/>
        <line class="cls-5" x1="397.19" y1="190.72" x2="473.42" y2="198.73"/>
      </g>
      <g>
        <path class="cls-3" d="M625.61,235.3c19.5-20.11,36.94-44.38,44.87-63.64,3.25-7.88,8.35-22.59,7.97-41.13-.34-16.53-5.04-35.89-9.72-35.9-1.29,0-3.75,1.45-7.91,18.16-6.38,25.62-6.38,45.45-6.98,72.31-.79,35.6-1.74,43.45-3.51,52.23-3.56,17.64-10.62,39.74-14.82,39.18-1.98-.26-3.16-5.55-3.27-8.89,0,0-.18-5.59,3.48-11.19,4.25-6.51,16.56-14.62,35.57-15.5,37.87-1.75,56.45,27.3,70.08,18.59,5.27-3.37,6.78-15.26,9.8-39.05,2.03-15.99,1.15-19.23,3.17-34.51,3.26-24.71,4.9-37.06,12.82-41.27,9.88-5.26,26.67,2.58,36.29,12.87,0,0,21.28,22.75.87,100.29-.02.06-.07.25-.11.25-.05,0-.06-.2-.07-.27-.02-.21-6.34-83.32,30.4-114.39,2.97-2.51,7.17-5.49,12.21-5.14,11.82.81,18.73,19.23,19.19,20.5,5.03,13.9-.54,20.39-2.62,44.9-1.3,15.38-3.76,44.35,8.84,51.14,5.15,2.78,11.77,1.27,17.86-1.46"/>
        <path class="cls-1" d="M563.97,274.38c16.48-.01,40.3-17.05,61.65-39.07"/>
        <g>
          <line class="cls-4" x1="890.03" y1="253.37" x2="911.04" y2="232.36"/>
          <line class="cls-4" x1="890.03" y1="253.37" x2="911.04" y2="274.38"/>
          <line class="cls-4" x1="1066.9" y1="253.37" x2="1045.89" y2="232.36"/>
          <line class="cls-4" x1="1066.9" y1="253.37" x2="1045.89" y2="274.38"/>
          <line class="cls-4" x1="923.29" y1="280.65" x2="956.75" y2="217.31"/>
          <path class="cls-2" d="M973.84,273.18c6.08,4.16,14.52,7.12,23.56,7.12,16.12,0,26-9.16,26-22.44,0-12.08-6.28-19.2-21.84-25.2-17.36-6.16-27.76-15.08-27.76-29.76,0-15.8,13.04-27.32,31.36-27.32,10.12,0,17.8,2.6,21.48,5.08l-2.96,6.4c-2.92-2.04-9.8-5.12-19.04-5.12-17.4,0-23.32,11.16-23.32,19.64,0,11.96,6.92,18.08,22.36,24.12,17.8,7.2,27.24,15.28,27.24,31.44s-11.2,29.64-34.2,29.64c-9.32,0-20.16-3.04-25.76-7.24l2.88-6.36Z"/>
        </g>
      </g>
    </g>
  </g>
</svg>